<svg xmlns="http://www.w3.org/2000/svg" width="40" height="40" viewBox="0 0 40 40">
  <defs>
    <style>
      .cls-1, .cls-4 {
        fill: none;
      }

      .cls-1 {
        stroke: #fff;
        stroke-width: 2px;
      }

      .cls-2 {
        fill: #fff;
      }

      .cls-3 {
        stroke: none;
      }
    </style>
  </defs>
  <g id="Button" transform="translate(-1345 -40)">
    <g id="Ellipse" class="cls-1" transform="translate(1345 40)">
      <circle class="cls-3" cx="20" cy="20" r="20"/>
      <circle class="cls-4" cx="20" cy="20" r="19"/>
    </g>
    <path id="Icon" class="cls-2" d="M14.783,6.093a7.237,7.237,0,0,0-3.668-1.44.344.344,0,0,0-.345.224c0,.005-.125.4-.243.771a8.535,8.535,0,0,1,2.762,1.035.663.663,0,0,1,.205.859A.563.563,0,0,1,13,7.854a.527.527,0,0,1-.286-.085A7.653,7.653,0,0,0,9,6.755,7.665,7.665,0,0,0,5.287,7.769a.544.544,0,0,1-.781-.229.663.663,0,0,1,.206-.857,8.541,8.541,0,0,1,2.77-1.036c-.125-.381-.25-.764-.253-.769a.34.34,0,0,0-.345-.224A7.241,7.241,0,0,0,3.2,6.109c-.734.745-2.2,5.1-2.2,8.866a.406.406,0,0,0,.046.189c1.012,1.953,3.771,2.465,4.4,2.487h.011a.34.34,0,0,0,.281-.157l.68-1.013A6.624,6.624,0,0,1,4.09,15.427a.67.67,0,0,1-.122-.878.538.538,0,0,1,.8-.136A7.258,7.258,0,0,0,9,15.548a7.223,7.223,0,0,0,4.235-1.136.539.539,0,0,1,.8.139.668.668,0,0,1-.121.874,6.593,6.593,0,0,1-2.32,1.053l.671,1.014a.338.338,0,0,0,.281.157h.011c.629-.022,3.388-.533,4.4-2.487A.406.406,0,0,0,17,14.974C17,11.209,15.535,6.854,14.783,6.093ZM6.714,13.664c-.631,0-1.143-.7-1.143-1.57s.511-1.57,1.143-1.57,1.143.7,1.143,1.57S7.346,13.664,6.714,13.664Zm4.571,0c-.631,0-1.143-.7-1.143-1.57s.511-1.57,1.143-1.57,1.143.7,1.143,1.57S11.917,13.664,11.286,13.664Z" transform="translate(1356 49.349)"/>
  </g>
</svg>
