<svg xmlns="http://www.w3.org/2000/svg" width="40" height="40" viewBox="0 0 40 40">
  <defs>
    <style>
      .cls-1, .cls-4 {
        fill: none;
      }

      .cls-1 {
        stroke: #fff;
        stroke-width: 2px;
      }

      .cls-2 {
        fill: #fff;
      }
      
      .cls-3 {
        stroke: none;
      }
      svg:hover {
  fill: red;
}
    </style>
  </defs>
  <g id="Button" transform="translate(-1345 -40)">
    <g id="Ellipse" class="cls-1" transform="translate(1345 40)">
      <circle class="cls-3" cx="20" cy="20" r="20"/>
      <circle class="cls-4" cx="20" cy="20" r="19"/>
    </g>
    <path id="Icon" class="cls-2" d="M18,5.975a6.553,6.553,0,0,1-1.885.517,3.288,3.288,0,0,0,1.443-1.816,6.582,6.582,0,0,1-2.085.8A3.283,3.283,0,0,0,9.794,7.718a3.319,3.319,0,0,0,.085.748,9.319,9.319,0,0,1-6.766-3.43A3.288,3.288,0,0,0,4.129,9.419a3.276,3.276,0,0,1-1.487-.41v.041a3.283,3.283,0,0,0,2.633,3.218,3.284,3.284,0,0,1-.865.115,3.342,3.342,0,0,1-.617-.058A3.286,3.286,0,0,0,6.859,14.6,6.623,6.623,0,0,1,2,15.964a9.293,9.293,0,0,0,5.032,1.474A9.275,9.275,0,0,0,16.37,8.1q0-.213-.009-.425A6.68,6.68,0,0,0,18,5.975Z" transform="translate(1355.001 49.063)"/>
  </g>
</svg>
